<svg width="36" height="48" viewBox="0 0 36 48" fill="none" xmlns="http://www.w3.org/2000/svg">
<g id="fa-solid:award" clip-path="url(#clip0_993_1201)">
<path id="Vector" d="M9.06472 33.9949C8.25365 33.1802 8.67645 33.4099 6.72019 32.8839C5.83259 32.6449 5.05232 32.1855 4.34672 31.6352L0.112184 42.0639C-0.297549 43.0736 0.467784 44.1705 1.55232 44.1292L6.47005 43.9408L9.85245 47.5296C10.5991 48.3208 11.9095 48.0742 12.3193 47.0646L17.1773 35.1002C16.1655 35.6664 15.0427 35.9983 13.8817 35.9983C12.0617 35.9983 10.3518 35.2867 9.06472 33.9949ZM35.7282 42.0639L31.4937 31.6352C30.7881 32.1864 30.0078 32.6449 29.1202 32.8839C27.1537 33.4127 27.5849 33.1821 26.7757 33.9949C25.4886 35.2867 23.7778 35.9983 21.9578 35.9983C20.7967 35.9983 19.6739 35.6655 18.6622 35.1002L23.5202 47.0646C23.9299 48.0742 25.2413 48.3208 25.987 47.5296L29.3703 43.9408L34.2881 44.1292C35.3726 44.1705 36.1379 43.0727 35.7282 42.0639ZM24.5469 31.8733C25.973 30.4155 26.1363 30.5411 28.1673 29.9852C29.4637 29.6299 30.4773 28.5939 30.8245 27.2683C31.5226 24.6058 31.3415 24.9274 33.2465 22.9792C34.1957 22.0089 34.5662 20.5942 34.219 19.2686C33.5218 16.608 33.5209 16.9792 34.219 14.3158C34.5662 12.9902 34.1957 11.5755 33.2465 10.6052C31.3415 8.65706 31.5226 8.97769 30.8245 6.31613C30.4773 4.9905 29.4637 3.95456 28.1673 3.59925C25.5651 2.88581 25.8787 3.07238 23.9719 1.12331C23.0227 0.153002 21.6386 -0.226685 20.3422 0.128627C17.741 0.841127 18.1041 0.842064 15.4982 0.128627C14.2018 -0.226685 12.8177 0.152065 11.8685 1.12331C9.96352 3.07144 10.2771 2.88581 7.67405 3.59925C6.37765 3.95456 5.36405 4.9905 5.01685 6.31613C4.31965 8.97769 4.49978 8.65706 2.59485 10.6052C1.64565 11.5755 1.27418 12.9902 1.62232 14.3158C2.31952 16.9746 2.32045 16.6033 1.62232 19.2677C1.27512 20.5933 1.64565 22.008 2.59485 22.9792C4.49978 24.9274 4.31872 24.6058 5.01685 27.2683C5.36405 28.5939 6.37765 29.6299 7.67405 29.9852C9.76285 30.5571 9.91872 30.4671 11.2935 31.8733C12.5283 33.1361 14.4519 33.3621 15.9359 32.4189C16.5293 32.0405 17.2177 31.8396 17.9207 31.8396C18.6236 31.8396 19.312 32.0405 19.9054 32.4189C21.3885 33.3621 23.3121 33.1361 24.5469 31.8733ZM9.11512 16.4946C9.11512 11.523 13.0575 7.49269 17.9202 7.49269C22.7829 7.49269 26.7253 11.523 26.7253 16.4946C26.7253 21.4661 22.7829 25.4964 17.9202 25.4964C13.0575 25.4964 9.11512 21.4661 9.11512 16.4946Z" fill="#877A7A"/>
</g>
<defs>
<clipPath id="clip0_993_1201">
<rect width="35.84" height="48" fill="white"/>
</clipPath>
</defs>
</svg>
