<svg width="49" height="48" viewBox="0 0 49 48" fill="none" xmlns="http://www.w3.org/2000/svg">
<g clip-path="url(#clip0_993_1178)">
<g clip-path="url(#clip1_993_1178)">
<path opacity="0.15" d="M44.6503 13.75H5.35031C5.33231 13.75 5.32031 13.7619 5.32031 13.7796V19.1849C5.32031 22.7291 8.26031 25.6037 11.8783 25.6037C14.3203 25.6037 16.4503 24.2998 17.5843 22.3617C17.7583 22.0594 18.0883 21.8698 18.4423 21.8698C18.7963 21.8698 19.1203 22.0594 19.3003 22.3617C20.4283 24.2998 22.5583 25.6037 25.0003 25.6037C27.4483 25.6037 29.5843 24.2938 30.7063 22.3498C30.8803 22.0535 31.1983 21.8698 31.5403 21.8698H31.5763C31.9243 21.8698 32.2363 22.0535 32.4103 22.3498C33.5383 24.2938 35.6743 25.6037 38.1223 25.6037C41.7403 25.6037 44.6803 22.7291 44.6803 19.1849V13.7796C44.6803 13.7619 44.6683 13.75 44.6503 13.75Z" fill="#877A7A"/>
<path d="M47.2 9.48885V1.89659C47.2 0.847537 46.342 0 45.28 0H4.72003C3.65804 0 2.80004 0.847537 2.80004 1.89659V9.48885C1.79804 9.54812 1.00004 10.372 1.00004 11.3795V19.1851C0.996195 20.6197 1.29025 22.0398 1.86404 23.3576C2.12204 23.9622 2.44004 24.5311 2.80004 25.0705V45.518C2.80004 46.5612 3.65804 47.4146 4.72003 47.4146H45.28C46.342 47.4146 47.2 46.5671 47.2 45.518V25.0705C47.5657 24.5298 47.879 23.9563 48.136 23.3576C48.706 22.036 49 20.6313 49 19.1851V11.3795C49 10.372 48.202 9.54812 47.2 9.48885ZM7.12003 4.26732H42.88V9.48293H7.12003V4.26732ZM28.84 43.1532H21.16V36.9834H28.84V43.1532ZM42.904 43.1532H32.68V35.0868C32.68 34.0378 31.822 33.1902 30.76 33.1902H19.24C18.178 33.1902 17.32 34.0378 17.32 35.0868V43.1532H7.12003V28.7985C7.29403 28.8814 7.47403 28.9644 7.66003 29.0355C8.99803 29.5927 10.42 29.8712 11.884 29.8712C13.348 29.8712 14.764 29.5927 16.108 29.0355C16.936 28.6918 17.716 28.2532 18.43 27.7257C18.442 27.7198 18.454 27.7198 18.466 27.7257C19.1822 28.2554 19.9622 28.6954 20.788 29.0355C22.126 29.5927 23.548 29.8712 25.012 29.8712C26.476 29.8712 27.892 29.5927 29.236 29.0355C30.064 28.6918 30.844 28.2532 31.558 27.7257C31.57 27.7198 31.582 27.7198 31.594 27.7257C32.3102 28.2554 33.0902 28.6954 33.916 29.0355C35.254 29.5927 36.676 29.8712 38.14 29.8712C39.604 29.8712 41.02 29.5927 42.364 29.0355C42.544 28.9585 42.724 28.8814 42.904 28.7985V43.1532ZM44.68 19.1851C44.68 22.7294 41.74 25.6039 38.122 25.6039C35.674 25.6039 33.538 24.2941 32.41 22.3501C32.236 22.0537 31.924 21.87 31.576 21.87H31.54C31.198 21.87 30.88 22.0537 30.706 22.3501C30.1304 23.3417 29.2992 24.1652 28.297 24.7367C27.2948 25.3082 26.1572 25.6074 25 25.6039C22.558 25.6039 20.428 24.3 19.3 22.3619C19.12 22.0597 18.796 21.87 18.442 21.87C18.088 21.87 17.758 22.0597 17.584 22.3619C17.005 23.3498 16.1728 24.1695 15.1711 24.7387C14.1694 25.3078 13.0336 25.6062 11.878 25.6039C8.26003 25.6039 5.32003 22.7294 5.32003 19.1851V13.7799C5.32003 13.7621 5.33203 13.7502 5.35003 13.7502H44.65C44.668 13.7502 44.68 13.7621 44.68 13.7799V19.1851Z" fill="#877A7A"/>
</g>
</g>
<defs>
<clipPath id="clip0_993_1178">
<rect width="48" height="48" fill="white" transform="translate(0.5)"/>
</clipPath>
<clipPath id="clip1_993_1178">
<rect width="48" height="47.4146" fill="white" transform="translate(1)"/>
</clipPath>
</defs>
</svg>
